<?xml version="1.0" encoding="UTF-8" standalone="no"?>
<svg width="149px" height="147px" viewBox="0 0 149 147" version="1.1" xmlns="http://www.w3.org/2000/svg" xmlns:xlink="http://www.w3.org/1999/xlink">
    <!-- Generator: Sketch 3.8.3 (29802) - http://www.bohemiancoding.com/sketch -->
    <title>Page 1</title>
    <desc>Created with Sketch.</desc>
    <defs>
        <filter x="-50%" y="-50%" width="200%" height="200%" filterUnits="objectBoundingBox" id="filter-1">
            <feOffset dx="1" dy="1" in="SourceAlpha" result="shadowOffsetOuter1"></feOffset>
            <feColorMatrix values="0 0 0 0 1   0 0 0 0 1   0 0 0 0 1  0 0 0 0.5 0" type="matrix" in="shadowOffsetOuter1" result="shadowMatrixOuter1"></feColorMatrix>
            <feMerge>
                <feMergeNode in="shadowMatrixOuter1"></feMergeNode>
                <feMergeNode in="SourceGraphic"></feMergeNode>
            </feMerge>
        </filter>
        <polygon id="path-2" points="136.468099 0.816766871 0 0.816766871 0 142.940708 136.468099 142.940708 136.468099 0.816766871"></polygon>
        <polygon id="path-4" points="16.9201 66.6103421 16.9201 0.630328947 0.255 0.630328947 0.255 66.6103421 16.9201 66.6103421"></polygon>
    </defs>
    <g id="Team-Members" stroke="none" stroke-width="1" fill="none" fill-rule="evenodd">
        <g id="Shared-page" transform="translate(-733.000000, -199.000000)">
            <g id="Page-1" filter="url(#filter-1)" transform="translate(733.481481, 199.000000)">
                <g id="Group-3">
                    <mask id="mask-3" fill="white">
                        <use xlink:href="#path-2"></use>
                    </mask>
                    <g id="Clip-2"></g>
                    <path d="M136.432977,122.897183 L135.897194,119.066888 L123.89355,33.1940724 L119.80362,3.93785153 C119.554926,2.15868589 118.023493,0.816415951 116.24162,0.816415951 C116.073206,0.816415951 115.901302,0.82869816 115.731143,0.852385276 L3.1040535,16.7657411 C1.13544204,17.0447227 -0.241538854,18.8817902 0.0350789809,20.8609804 L16.6644357,139.820312 C16.9375631,141.768796 18.7831363,143.183882 20.7369134,142.905778 L60.3691809,137.305968 L133.364003,126.991545 C133.932073,126.91171 134.441678,126.690631 134.885837,126.384453 C135.980964,125.630852 136.630187,124.306128 136.432977,122.897183" id="Fill-1" fill="#D4D7DA" mask="url(#mask-3)"></path>
                </g>
                <g id="Group-12" transform="translate(17.000000, 24.000000)" fill-opacity="0.1" fill="#272C33">
                    <path d="M65.6747129,16.7715897 C67.1675516,27.4048718 59.7660677,37.2361026 49.1428742,38.730359 C38.5196806,40.2246154 28.6977774,32.8169744 27.2049387,22.1836923 C25.7121,11.5504103 33.1135839,1.71830769 43.7367774,0.224051282 C54.359971,-1.27020513 64.1818742,6.13830769 65.6747129,16.7715897" id="Fill-4"></path>
                    <path d="M100.622903,54.4234513 L3.97858065,68.0190923 C2.55019355,68.2196051 1.22893548,67.2231436 1.02774194,65.7925282 L0.845709677,64.4979128 C0.645387097,63.0681692 1.64090323,61.7456564 3.07016129,61.5442718 L99.7136129,47.9486308 C101.142871,47.7481179 102.464129,48.7445795 102.665323,50.1751949 L102.846484,51.4698103 C103.047677,52.8995538 102.052161,54.2220667 100.622903,54.4234513" id="Fill-6"></path>
                    <path d="M96.4455677,72.3154718 L12.9215032,84.0655231 C11.4922452,84.2660359 10.1709871,83.2695744 9.97066452,81.838959 L9.78863226,80.5443436 C9.58743871,79.1146 10.5829548,77.7920872 12.0122129,77.5907026 L95.5362774,65.8406513 C96.9655355,65.6401385 98.2867935,66.6366 98.4879871,68.0672154 L98.6691484,69.3618308 C98.8703419,70.7915744 97.8748258,72.1140872 96.4455677,72.3154718" id="Fill-8"></path>
                    <path d="M105.388055,88.3619026 L8.74373226,101.957544 C7.31534516,102.158056 5.9940871,101.161595 5.79289355,99.7309795 L5.61086129,98.4363641 C5.41053871,97.0066205 6.40605484,95.6841077 7.8353129,95.4827231 L104.478765,81.8870821 C105.908023,81.6865692 107.229281,82.6830308 107.430474,84.1136462 L107.611635,85.4082615 C107.812829,86.8380051 106.817313,88.1605179 105.388055,88.3619026" id="Fill-10"></path>
                </g>
                <g id="Group-15" transform="translate(80.000000, 131.000000)" fill="#D4D7DA">
                    <path d="M46.3809762,14.9386765 C49.8197857,15.4222059 52.9940714,12.9966176 53.4724841,9.52102941 L54.6807381,0.738088235 L0.299706349,8.46220588 L46.3809762,14.9386765 Z" id="Fill-13"></path>
                </g>
                <g id="Group-18" transform="translate(130.000000, 33.000000)">
                    <mask id="mask-5" fill="white">
                        <use xlink:href="#path-4"></use>
                    </mask>
                    <g id="Clip-17"></g>
                    <path d="M11.64245,2.27271053 L0.255,0.630328947 L9.1953,66.6103421 L16.86145,9.43377632 C17.3264,5.96211842 14.9906,2.75581579 11.64245,2.27271053" id="Fill-16" fill="#D4D7DA" mask="url(#mask-5)"></path>
                </g>
            </g>
        </g>
    </g>
</svg>