<?xml version="1.0" encoding="UTF-8" standalone="no"?>
<svg width="16px" height="16px" viewBox="0 0 16 16" version="1.1" xmlns="http://www.w3.org/2000/svg" xmlns:xlink="http://www.w3.org/1999/xlink" xmlns:sketch="http://www.bohemiancoding.com/sketch/ns">
    <!-- Generator: Sketch 3.4.1 (15681) - http://www.bohemiancoding.com/sketch -->
    <title>Shape</title>
    <desc>Created with Sketch.</desc>
    <defs></defs>
    <g id="Page-1" stroke="none" stroke-width="1" fill="none" fill-rule="evenodd" sketch:type="MSPage">
        <g id="Listing-page-Copy-2" sketch:type="MSArtboardGroup" transform="translate(-428.000000, -460.000000)" fill="#A9A9A9">
            <g id="loupe" sketch:type="MSLayerGroup" transform="translate(428.000000, 460.000000)">
                <path d="M15.7473684,14.5684211 L10.6105263,9.43157895 C11.3684211,8.42105263 11.7894737,7.24210526 11.7894737,5.89473684 C11.7894737,2.61052632 9.17894737,0 5.89473684,0 C2.61052632,0 0,2.61052632 0,5.89473684 C0,9.17894737 2.61052632,11.7894737 5.89473684,11.7894737 C7.24210526,11.7894737 8.42105263,11.3684211 9.43157895,10.6105263 L14.5684211,15.7473684 C14.7368421,15.9157895 14.9894737,16 15.1578947,16 C15.3263158,16 15.5789474,15.9157895 15.7473684,15.7473684 C16.0842105,15.4105263 16.0842105,14.9052632 15.7473684,14.5684211 L15.7473684,14.5684211 Z M1.68421053,5.89473684 C1.68421053,3.53684211 3.53684211,1.68421053 5.89473684,1.68421053 C8.25263158,1.68421053 10.1052632,3.53684211 10.1052632,5.89473684 C10.1052632,8.25263158 8.25263158,10.1052632 5.89473684,10.1052632 C3.53684211,10.1052632 1.68421053,8.25263158 1.68421053,5.89473684 L1.68421053,5.89473684 Z" id="Shape" sketch:type="MSShapeGroup"></path>
            </g>
        </g>
    </g>
</svg>